<svg width="84" height="82" viewBox="0 0 84 82" fill="none" xmlns="http://www.w3.org/2000/svg">
<path id="rect9513" d="M14.6337 23.8419L40.4186 1.26426L44.2994 5.62618M28.8343 23.8419L54.9099 1.00342L73.8343 22.2913L72.0465 23.8564M75.6948 67.1712V78.2861C75.6948 79.6628 74.5901 80.7641 73.2093 80.7641H3.48546C2.10465 80.7641 1 79.6628 1 78.2861V30.6673C1 29.2906 2.10465 28.1893 3.48546 28.1893H73.2093C74.5901 28.1893 75.6948 29.2906 75.6948 30.6673V41.7822M56.9302 54.4767C56.9302 56.6794 55.1279 58.4618 52.9186 58.4618C50.6948 58.4618 48.907 56.6794 48.907 54.4767C48.907 52.274 50.7093 50.4916 52.9186 50.4916C55.1279 50.4916 56.9302 52.274 56.9302 54.4767ZM45.3895 46.1297H81.3779C82.0901 46.1297 82.657 46.4774 82.657 46.9122V62.0412C82.657 62.476 82.0901 62.8238 81.3779 62.8238H45.3895C44.6773 62.8238 44.1105 62.476 44.1105 62.0412V46.9122C44.1105 46.4774 44.6773 46.1297 45.3895 46.1297Z" stroke="#2B3033" stroke-width="1.2" stroke-linecap="square"/>
</svg>
