<svg width="82" height="82" viewBox="0 0 82 82" fill="none" xmlns="http://www.w3.org/2000/svg">
<path id="path4814" d="M14.7146 55.8636L25.7974 66.9132L14.3784 78.2981C11.0936 82.54 22.6678 80.3997 27.6467 78.3754C31.1642 76.9443 34.255 73.8627 35.6904 70.3557C37.7337 65.3918 36.8155 55.4252 36.8155 55.4252C37.9018 53.9295 38.9623 52.3694 40.0744 50.8351M50.8727 40.0562C53.3945 38.1867 55.5929 36.704 55.5929 36.704C55.5929 36.704 65.6023 37.6194 70.5683 35.5822C74.0858 34.1511 77.1766 31.0696 78.612 27.5625C80.6553 22.5986 82.7891 11.0719 78.5344 14.3339L67.1154 25.7188L56.0326 14.6692L67.4516 3.28428C68.2793 2.45911 68.3569 1.8918 67.9043 1.53078C66.3007 0.254335 58.0759 1.62103 54.1833 3.20692C50.6658 4.63809 47.575 7.71961 46.1396 11.2266C44.0963 16.1906 45.0145 26.1572 45.0145 26.1572C45.0145 26.1572 43.5919 28.2459 41.7815 30.6956M30.7116 41.7453C29.1856 42.8412 27.6596 43.8727 26.2242 44.8784C26.2242 44.8784 16.2147 43.9629 11.2488 46.0001C7.73129 47.4313 4.64052 50.5128 3.20506 54.0198C1.61442 57.8878 0.243616 66.1009 1.52389 67.6997C1.88599 68.151 2.455 68.0736 3.28265 67.2484L9.36073 61.1885M8.63653 8.62215L24.7887 24.726M33.4791 28.5038L28.5649 33.4033M33.1946 37.9159L65.279 69.2211L66.1326 73.4759L76.0127 80.7607L80.9915 75.7967L73.6849 65.9462L69.2104 65.3015L37.876 33.0422M22.7196 35.8272L20.4435 30.1928C12.1541 22.0829 12.1541 22.0055 1.95065 11.7552C-2.09709 7.60357 7.84768 -2.07937 11.792 1.96916C22.0471 12.2839 21.9824 12.2581 30.2848 20.4067L36.0525 22.5599L34.3972 27.6141L27.6855 34.3058L22.7325 35.853L22.7196 35.8272Z" stroke="#2B3033" stroke-width="1.2" stroke-linecap="round" stroke-linejoin="round"/>
</svg>
